<svg width="300" height="300" viewBox="0 0 300 300" fill="none" xmlns="http://www.w3.org/2000/svg">
<mask id="mask0_4_31" style="mask-type:luminance" maskUnits="userSpaceOnUse" x="0" y="0" width="300" height="300">
<path d="M300 0H0V300H300V0Z" fill="white"/>
</mask>
<g mask="url(#mask0_4_31)">
<path d="M300 0H0V300H300V0Z" fill="url(#paint0_linear_4_31)"/>
<path d="M210.369 111.899C205.382 101.402 198.33 93.1288 189.215 87.0794L178.119 56.4282C188.084 58.9751 197.344 63.0173 205.898 68.5548C221.921 78.8081 233.567 93.2564 240.833 111.899H210.369Z" fill="white"/>
<path d="M198.152 136.678L164.855 44.7H135.524L65.1173 238.492H91.9055L107.576 195.148H192.54L208.19 238.492H235.015L211.832 174.454H114.842L150.024 76.1118L150.09 76.1112L171.758 136.678H198.152Z" fill="white"/>
<path d="M101.649 66.038C108.108 62.3219 114.864 59.4112 121.917 57.3053L110.896 87.6432C101.644 93.6747 94.183 101.947 88.513 112.458C82.3643 124.017 79.29 137.44 79.29 152.727C79.29 158.943 79.7982 164.849 80.8146 170.448L67.7152 206.506C57.7577 190.425 53.2978 171.54 53.2978 152.727C53.2978 133.711 57.5833 116.653 66.1541 101.553C74.9115 86.2652 86.7429 74.4273 101.649 66.038Z" fill="white"/>
<path d="M246.702 164.752C245.346 179.338 241.06 192.845 233.842 205.271L219.593 165.871H149.955V145.236H246.702V164.752Z" fill="white"/>
<path d="M100.773 238.906L108.916 216.388C121.098 225.152 136.22 229.07 151.118 229.07C166.898 229.07 180.364 225.149 191.519 217.31L199.543 239.532C184.919 248.089 167.986 252 151.118 252C133.588 252 115.947 247.837 100.773 238.906Z" fill="white"/>
</g>
<defs>
<linearGradient id="paint0_linear_4_31" x1="150" y1="0" x2="150" y2="300" gradientUnits="userSpaceOnUse">
<stop stop-color="#00C0C0"/>
<stop offset="1" stop-color="#009090"/>
</linearGradient>
</defs>
</svg>
